<svg width="35" height="38" viewBox="0 0 35 38" fill="none" xmlns="http://www.w3.org/2000/svg">
<path d="M23 8.78571H11.8571C6.72877 8.78571 2.57141 12.9431 2.57141 18.0714V26.4286C2.57141 31.5569 6.72877 35.7143 11.8571 35.7143H23C28.1283 35.7143 32.2857 31.5569 32.2857 26.4286V18.0714C32.2857 12.9431 28.1283 8.78571 23 8.78571Z" stroke="white" stroke-width="3.5"/>
<path d="M10.9285 23.6429C12.467 23.6429 13.7143 21.9799 13.7143 19.9286C13.7143 17.8772 12.467 16.2143 10.9285 16.2143C9.39003 16.2143 8.14282 17.8772 8.14282 19.9286C8.14282 21.9799 9.39003 23.6429 10.9285 23.6429Z" fill="white"/>
<path d="M23.9285 23.6429C25.467 23.6429 26.7143 21.9799 26.7143 19.9286C26.7143 17.8772 25.467 16.2143 23.9285 16.2143C22.39 16.2143 21.1428 17.8772 21.1428 19.9286C21.1428 21.9799 22.39 23.6429 23.9285 23.6429Z" fill="white"/>
<path d="M20.2143 3.42856C20.2143 1.77176 18.967 0.428558 17.4285 0.428558C15.8901 0.428558 14.6428 1.77176 14.6428 3.42856H20.2143ZM20.2143 7.42856V3.42856H14.6428V7.42856H20.2143Z" fill="white"/>
</svg>
