<svg width="140" height="42" viewBox="0 0 140 42" fill="none" xmlns="http://www.w3.org/2000/svg">
<path d="M18.944 31L13.824 23.8C13.248 23.864 12.6507 23.896 12.032 23.896H6.016V31H3.648V8.6H12.032C14.8907 8.6 17.1307 9.28267 18.752 10.648C20.3733 12.0133 21.184 13.8907 21.184 16.28C21.184 18.0293 20.736 19.512 19.84 20.728C18.9653 21.9227 17.7067 22.7867 16.064 23.32L21.536 31H18.944ZM11.968 21.88C14.1867 21.88 15.8827 21.3893 17.056 20.408C18.2293 19.4267 18.816 18.0507 18.816 16.28C18.816 14.4667 18.2293 13.08 17.056 12.12C15.8827 11.1387 14.1867 10.648 11.968 10.648H6.016V21.88H11.968ZM52.7209 14.04C54.2996 14.04 55.7289 14.4027 57.0089 15.128C58.2889 15.832 59.2916 16.8347 60.0169 18.136C60.7423 19.4373 61.1049 20.92 61.1049 22.584C61.1049 24.248 60.7423 25.7307 60.0169 27.032C59.2916 28.3333 58.2889 29.3467 57.0089 30.072C55.7289 30.7973 54.2996 31.16 52.7209 31.16C51.3129 31.16 50.0436 30.8613 48.9129 30.264C47.8036 29.6667 46.9076 28.8027 46.2249 27.672V31H44.0489V7.256H46.3209V17.368C47.0249 16.28 47.9209 15.4587 49.0089 14.904C50.1183 14.328 51.3556 14.04 52.7209 14.04ZM52.5609 29.144C53.7343 29.144 54.8009 28.8773 55.7609 28.344C56.7209 27.7893 57.4676 27.0107 58.0009 26.008C58.5556 25.0053 58.8329 23.864 58.8329 22.584C58.8329 21.304 58.5556 20.1627 58.0009 19.16C57.4676 18.1573 56.7209 17.3893 55.7609 16.856C54.8009 16.3013 53.7343 16.024 52.5609 16.024C51.3663 16.024 50.2889 16.3013 49.3289 16.856C48.3903 17.3893 47.6436 18.1573 47.0889 19.16C46.5556 20.1627 46.2889 21.304 46.2889 22.584C46.2889 23.864 46.5556 25.0053 47.0889 26.008C47.6436 27.0107 48.3903 27.7893 49.3289 28.344C50.2889 28.8773 51.3663 29.144 52.5609 29.144ZM71.5764 31.16C69.9551 31.16 68.4938 30.7973 67.1924 30.072C65.8911 29.3253 64.8671 28.3013 64.1204 27C63.3738 25.6987 63.0004 24.2267 63.0004 22.584C63.0004 20.9413 63.3738 19.4693 64.1204 18.168C64.8671 16.8667 65.8911 15.8533 67.1924 15.128C68.4938 14.4027 69.9551 14.04 71.5764 14.04C73.1978 14.04 74.6591 14.4027 75.9604 15.128C77.2618 15.8533 78.2751 16.8667 79.0004 18.168C79.7471 19.4693 80.1204 20.9413 80.1204 22.584C80.1204 24.2267 79.7471 25.6987 79.0004 27C78.2751 28.3013 77.2618 29.3253 75.9604 30.072C74.6591 30.7973 73.1978 31.16 71.5764 31.16ZM71.5764 29.144C72.7711 29.144 73.8378 28.8773 74.7764 28.344C75.7364 27.7893 76.4831 27.0107 77.0164 26.008C77.5498 25.0053 77.8164 23.864 77.8164 22.584C77.8164 21.304 77.5498 20.1627 77.0164 19.16C76.4831 18.1573 75.7364 17.3893 74.7764 16.856C73.8378 16.3013 72.7711 16.024 71.5764 16.024C70.3818 16.024 69.3044 16.3013 68.3444 16.856C67.4058 17.3893 66.6591 18.1573 66.1044 19.16C65.5711 20.1627 65.3044 21.304 65.3044 22.584C65.3044 23.864 65.5711 25.0053 66.1044 26.008C66.6591 27.0107 67.4058 27.7893 68.3444 28.344C69.3044 28.8773 70.3818 29.144 71.5764 29.144ZM92.0069 29.976C91.5803 30.36 91.0576 30.6587 90.4389 30.872C89.8203 31.064 89.1696 31.16 88.4869 31.16C86.9083 31.16 85.6923 30.7333 84.8389 29.88C83.9856 29.0267 83.5589 27.8213 83.5589 26.264V10.488H85.8309V14.168H90.9189V16.088H85.8309V26.136C85.8309 27.1387 86.0763 27.9067 86.5669 28.44C87.0576 28.952 87.7723 29.208 88.7109 29.208C89.7349 29.208 90.5669 28.92 91.2069 28.344L92.0069 29.976ZM129.334 14.04C131.446 14.04 133.12 14.6587 134.358 15.896C135.616 17.112 136.246 18.8933 136.246 21.24V31H133.974V21.464C133.974 19.7147 133.536 18.3813 132.662 17.464C131.787 16.5467 130.539 16.088 128.918 16.088C127.104 16.088 125.664 16.632 124.598 17.72C123.552 18.7867 123.03 20.2693 123.03 22.168V31H120.758V14.168H122.934V17.272C123.552 16.248 124.406 15.4587 125.494 14.904C126.603 14.328 127.883 14.04 129.334 14.04Z" fill="black"/>
<path d="M95.093 18.81H97.301V31H95.093V18.81ZM96.197 16.464C95.7677 16.464 95.4073 16.326 95.116 16.05C94.84 15.774 94.702 15.4367 94.702 15.038C94.702 14.6393 94.84 14.302 95.116 14.026C95.4073 13.7347 95.7677 13.589 96.197 13.589C96.6263 13.589 96.979 13.727 97.255 14.003C97.5463 14.2637 97.692 14.5933 97.692 14.992C97.692 15.406 97.5463 15.7587 97.255 16.05C96.979 16.326 96.6263 16.464 96.197 16.464Z" fill="black"/>
<path d="M35.5 36C55.4146 42.6667 87.4512 42.6667 106.5 36" stroke="#DEDEDE" stroke-width="1.25" stroke-miterlimit="1.41421" stroke-linecap="round" stroke-dasharray="13 6"/>
<ellipse cx="109.5" cy="32.25" rx="6.5" ry="1.75" fill="#DEDEDE"/>
<circle cx="109.5" cy="18.75" r="3.25" fill="#FF0000"/>
<path fill-rule="evenodd" clip-rule="evenodd" d="M101 18.8C101 13.96 104.825 10 109.5 10C114.175 10 118 13.96 118 18.8C118 24.3735 111.452 30.6249 110.381 31.6477C110.31 31.715 110.263 31.7596 110.244 31.78C110.031 31.89 109.713 32 109.5 32C109.287 32 108.969 31.89 108.756 31.78C108.737 31.7596 108.69 31.715 108.619 31.6477C107.548 30.6249 101 24.3735 101 18.8ZM103.125 18.8C103.125 22.54 107.269 27.27 109.5 29.47C111.731 27.27 115.875 22.43 115.875 18.8C115.875 15.17 113.006 12.2 109.5 12.2C105.994 12.2 103.125 15.17 103.125 18.8Z" fill="black"/>
<rect x="24" y="15.5" width="16" height="14.5" rx="5" stroke="black" stroke-width="2"/>
<ellipse cx="28.5" cy="21.5" rx="1.5" ry="2" fill="#5058FF"/>
<ellipse cx="35.5" cy="21.5" rx="1.5" ry="2" fill="#5058FF"/>
<path d="M33.5 12.5C33.5 11.6716 32.8284 11 32 11C31.1716 11 30.5 11.6716 30.5 12.5L33.5 12.5ZM33.5 14.5L33.5 12.5L30.5 12.5L30.5 14.5L33.5 14.5Z" fill="black"/>
</svg>
